<svg width="2044" height="539" viewBox="0 0 2044 539" fill="none" xmlns="http://www.w3.org/2000/svg">
<mask id="mask0_1691_159" style="mask-type:luminance" maskUnits="userSpaceOnUse" x="0" y="0" width="2000" height="539">
<path d="M2000 0H0V538.095H2000V0Z" fill="white"></path>
</mask>
<g mask="url(#mask0_1691_159)">
<path d="M162.62 261.692C210.993 261.692 245.364 240.784 245.364 205.502C245.364 166.822 207.492 157.151 173.758 148.788C139.07 140.163 133.66 134.413 133.66 126.051C133.66 118.732 141.616 112.199 157.528 112.199C177.896 112.199 188.398 120.301 196.036 133.368L238.998 112.722C222.768 85.802 194.126 71.4277 157.528 71.4277C119.021 71.4277 82.7408 91.813 82.7408 127.096C82.7408 162.117 115.202 175.184 148.299 182.764C181.715 190.343 194.445 194.786 194.445 206.024C194.445 213.081 188.398 220.921 164.211 220.921C139.07 220.921 125.386 210.729 117.429 195.57L73.5117 216.478C85.9231 243.398 115.838 261.692 162.62 261.692Z" fill="white"></path>
<path d="M149.763 265.359H73.4844V456.057H149.763C202.342 456.057 242.388 414.648 242.388 360.708C242.388 306.768 202.342 265.359 149.763 265.359ZM149.763 414.103H117.072V307.313H149.763C179.73 307.313 200.434 328.017 200.434 360.708C200.434 393.399 179.73 414.103 149.763 414.103Z" fill="white"></path>
<path d="M299.115 261.692H365.512L439.721 71.4277H382.762L332.313 211.408L281.865 71.4277H224.906L299.115 261.692Z" fill="white"></path>
<path d="M441.4 353.443H345.779V391.583H396.723C389.912 409.835 373.294 421.004 347.959 421.004C310.909 421.004 288.026 397.304 288.026 364.885C288.026 331.377 311.999 307.676 344.145 307.676C365.667 307.676 382.829 317.483 390.729 330.015L427.779 308.766C411.706 283.158 380.922 265.178 344.417 265.178C288.298 265.178 244.438 309.311 244.438 364.613C244.438 419.37 287.48 463.503 347.414 463.503C400.809 463.503 441.4 428.088 441.4 369.789V353.443Z" fill="white"></path>
<path d="M228.571 9.52344H9.52344V33.333H228.571V9.52344Z" fill="white"></path>
<path d="M285.714 528.57H504.762V504.761H285.714V528.57Z" fill="white"></path>
<path d="M33.3359 228.571L33.3359 9.52344L9.52641 9.52344L9.52641 228.571H33.3359Z" fill="white"></path>
<path d="M480.953 309.523V528.57H504.763V309.523H480.953Z" fill="white"></path>
</g>
<path d="M1286.04 243L1243.32 75H1275.96L1311.48 222.6H1314.84L1350.36 75H1383L1340.28 243H1286.04Z" fill="white"></path>
<path d="M1411.76 246.36C1403.28 246.36 1395.68 244.92 1388.96 242.04C1382.24 239 1376.88 234.68 1372.88 229.08C1369.04 223.32 1367.12 216.36 1367.12 208.2C1367.12 200.04 1369.04 193.24 1372.88 187.8C1376.88 182.2 1382.32 178.04 1389.2 175.32C1396.24 172.44 1404.24 171 1413.2 171H1445.84V164.28C1445.84 158.68 1444.08 154.12 1440.56 150.6C1437.04 146.92 1431.44 145.08 1423.76 145.08C1416.24 145.08 1410.64 146.84 1406.96 150.36C1403.28 153.72 1400.88 158.12 1399.76 163.56L1371.92 154.2C1373.84 148.12 1376.88 142.6 1381.04 137.64C1385.36 132.52 1391.04 128.44 1398.08 125.4C1405.28 122.2 1414 120.6 1424.24 120.6C1439.92 120.6 1452.32 124.52 1461.44 132.36C1470.56 140.2 1475.12 151.56 1475.12 166.44V210.84C1475.12 215.64 1477.36 218.04 1481.84 218.04H1491.44V243H1471.28C1465.36 243 1460.48 241.56 1456.64 238.68C1452.8 235.8 1450.88 231.96 1450.88 227.16V226.92H1446.32C1445.68 228.84 1444.24 231.4 1442 234.6C1439.76 237.64 1436.24 240.36 1431.44 242.76C1426.64 245.16 1420.08 246.36 1411.76 246.36ZM1417.04 221.88C1425.52 221.88 1432.4 219.56 1437.68 214.92C1443.12 210.12 1445.84 203.8 1445.84 195.96V193.56H1415.36C1409.76 193.56 1405.36 194.76 1402.16 197.16C1398.96 199.56 1397.36 202.92 1397.36 207.24C1397.36 211.56 1399.04 215.08 1402.4 217.8C1405.76 220.52 1410.64 221.88 1417.04 221.88Z" fill="white"></path>
<path d="M1500.8 243V75H1531.04V243H1500.8Z" fill="white"></path>
<path d="M1546.8 243V75H1577.04V243H1546.8Z" fill="white"></path>
<path d="M1647.04 246.36C1635.2 246.36 1624.72 243.88 1615.6 238.92C1606.64 233.8 1599.6 226.68 1594.48 217.56C1589.52 208.28 1587.04 197.4 1587.04 184.92V182.04C1587.04 169.56 1589.52 158.76 1594.48 149.64C1599.44 140.36 1606.4 133.24 1615.36 128.28C1624.32 123.16 1634.72 120.6 1646.56 120.6C1658.24 120.6 1668.4 123.24 1677.04 128.52C1685.68 133.64 1692.4 140.84 1697.2 150.12C1702 159.24 1704.4 169.88 1704.4 182.04V192.36H1617.76C1618.08 200.52 1621.12 207.16 1626.88 212.28C1632.64 217.4 1639.68 219.96 1648 219.96C1656.48 219.96 1662.72 218.12 1666.72 214.44C1670.72 210.76 1673.76 206.68 1675.84 202.2L1700.56 215.16C1698.32 219.32 1695.04 223.88 1690.72 228.84C1686.56 233.64 1680.96 237.8 1673.92 241.32C1666.88 244.68 1657.92 246.36 1647.04 246.36ZM1618 169.8H1673.68C1673.04 162.92 1670.24 157.4 1665.28 153.24C1660.48 149.08 1654.16 147 1646.32 147C1638.16 147 1631.68 149.08 1626.88 153.24C1622.08 157.4 1619.12 162.92 1618 169.8Z" fill="white"></path>
<path d="M1727.76 291V264.6H1792.56C1797.04 264.6 1799.28 262.2 1799.28 257.4V227.4H1794.96C1793.68 230.12 1791.68 232.84 1788.96 235.56C1786.24 238.28 1782.56 240.52 1777.92 242.28C1773.28 244.04 1767.36 244.92 1760.16 244.92C1750.88 244.92 1742.72 242.84 1735.68 238.68C1728.8 234.36 1723.44 228.44 1719.6 220.92C1715.76 213.4 1713.84 204.76 1713.84 195V123.96H1744.08V192.6C1744.08 201.56 1746.24 208.28 1750.56 212.76C1755.04 217.24 1761.36 219.48 1769.52 219.48C1778.8 219.48 1786 216.44 1791.12 210.36C1796.24 204.12 1798.8 195.48 1798.8 184.44V123.96H1829.04V264.12C1829.04 272.28 1826.64 278.76 1821.84 283.56C1817.04 288.52 1810.64 291 1802.64 291H1727.76Z" fill="white"></path>
<path d="M622.16 246.36C609.2 246.36 597.76 244.04 587.84 239.4C577.92 234.76 570.16 228.12 564.56 219.48C558.96 210.84 556.16 200.44 556.16 188.28V181.56H587.36V188.28C587.36 198.36 590.48 205.96 596.72 211.08C602.96 216.04 611.44 218.52 622.16 218.52C633.04 218.52 641.12 216.36 646.4 212.04C651.84 207.72 654.56 202.2 654.56 195.48C654.56 190.84 653.2 187.08 650.48 184.2C647.92 181.32 644.08 179 638.96 177.24C634 175.32 627.92 173.56 620.72 171.96L615.2 170.76C603.68 168.2 593.76 165 585.44 161.16C577.28 157.16 570.96 151.96 566.48 145.56C562.16 139.16 560 130.84 560 120.6C560 110.36 562.4 101.64 567.2 94.44C572.16 87.08 579.04 81.48 587.84 77.64C596.8 73.64 607.28 71.64 619.28 71.64C631.28 71.64 641.92 73.72 651.2 77.88C660.64 81.88 668 87.96 673.28 96.12C678.72 104.12 681.44 114.2 681.44 126.36V133.56H650.24V126.36C650.24 119.96 648.96 114.84 646.4 111C644 107 640.48 104.12 635.84 102.36C631.2 100.44 625.68 99.48 619.28 99.48C609.68 99.48 602.56 101.32 597.92 105C593.44 108.52 591.2 113.4 591.2 119.64C591.2 123.8 592.24 127.32 594.32 130.2C596.56 133.08 599.84 135.48 604.16 137.4C608.48 139.32 614 141 620.72 142.44L626.24 143.64C638.24 146.2 648.64 149.48 657.44 153.48C666.4 157.48 673.36 162.76 678.32 169.32C683.28 175.88 685.76 184.28 685.76 194.52C685.76 204.76 683.12 213.8 677.84 221.64C672.72 229.32 665.36 235.4 655.76 239.88C646.32 244.2 635.12 246.36 622.16 246.36Z" fill="white"></path>
<path d="M693.8 243V123.96H724.04V243H693.8ZM708.92 110.04C703.48 110.04 698.84 108.28 695 104.76C691.32 101.24 689.48 96.6 689.48 90.84C689.48 85.08 691.32 80.44 695 76.92C698.84 73.4 703.48 71.64 708.92 71.64C714.52 71.64 719.16 73.4 722.84 76.92C726.52 80.44 728.36 85.08 728.36 90.84C728.36 96.6 726.52 101.24 722.84 104.76C719.16 108.28 714.52 110.04 708.92 110.04Z" fill="white"></path>
<path d="M788.8 243V123.96H819.04V243H788.8ZM803.92 110.04C798.48 110.04 793.84 108.28 790 104.76C786.32 101.24 784.48 96.6 784.48 90.84C784.48 85.08 786.32 80.44 790 76.92C793.84 73.4 798.48 71.64 803.92 71.64C809.52 71.64 814.16 73.4 817.84 76.92C821.52 80.44 823.36 85.08 823.36 90.84C823.36 96.6 821.52 101.24 817.84 104.76C814.16 108.28 809.52 110.04 803.92 110.04Z" fill="white"></path>
<path d="M892.72 246.36C881.2 246.36 870.72 243.96 861.28 239.16C852 234.36 844.64 227.4 839.2 218.28C833.76 209.16 831.04 198.12 831.04 185.16V181.8C831.04 168.84 833.76 157.8 839.2 148.68C844.64 139.56 852 132.6 861.28 127.8C870.72 123 881.2 120.6 892.72 120.6C904.08 120.6 913.84 122.6 922 126.6C930.16 130.6 936.72 136.12 941.68 143.16C946.8 150.04 950.16 157.88 951.76 166.68L922.48 172.92C921.84 168.12 920.4 163.8 918.16 159.96C915.92 156.12 912.72 153.08 908.56 150.84C904.56 148.6 899.52 147.48 893.44 147.48C887.36 147.48 881.84 148.84 876.88 151.56C872.08 154.12 868.24 158.04 865.36 163.32C862.64 168.44 861.28 174.76 861.28 182.28V184.68C861.28 192.2 862.64 198.6 865.36 203.88C868.24 209 872.08 212.92 876.88 215.64C881.84 218.2 887.36 219.48 893.44 219.48C902.56 219.48 909.44 217.16 914.08 212.52C918.88 207.72 921.92 201.48 923.2 193.8L952.48 200.76C950.4 209.24 946.8 217 941.68 224.04C936.72 230.92 930.16 236.36 922 240.36C913.84 244.36 904.08 246.36 892.72 246.36Z" fill="white"></path>
<path d="M1019.44 246.36C1007.6 246.36 996.96 243.96 987.52 239.16C978.08 234.36 970.64 227.4 965.2 218.28C959.76 209.16 957.04 198.2 957.04 185.4V181.56C957.04 168.76 959.76 157.8 965.2 148.68C970.64 139.56 978.08 132.6 987.52 127.8C996.96 123 1007.6 120.6 1019.44 120.6C1031.28 120.6 1041.92 123 1051.36 127.8C1060.8 132.6 1068.24 139.56 1073.68 148.68C1079.12 157.8 1081.84 168.76 1081.84 181.56V185.4C1081.84 198.2 1079.12 209.16 1073.68 218.28C1068.24 227.4 1060.8 234.36 1051.36 239.16C1041.92 243.96 1031.28 246.36 1019.44 246.36ZM1019.44 219.48C1028.72 219.48 1036.4 216.52 1042.48 210.6C1048.56 204.52 1051.6 195.88 1051.6 184.68V182.28C1051.6 171.08 1048.56 162.52 1042.48 156.6C1036.56 150.52 1028.88 147.48 1019.44 147.48C1010.16 147.48 1002.48 150.52 996.4 156.6C990.32 162.52 987.28 171.08 987.28 182.28V184.68C987.28 195.88 990.32 204.52 996.4 210.6C1002.48 216.52 1010.16 219.48 1019.44 219.48Z" fill="white"></path>
<path d="M1093.8 243V123.96H1123.56V139.56H1127.88C1129.8 135.4 1133.4 131.48 1138.68 127.8C1143.96 123.96 1151.96 122.04 1162.68 122.04C1171.96 122.04 1180.04 124.2 1186.92 128.52C1193.96 132.68 1199.4 138.52 1203.24 146.04C1207.08 153.4 1209 162.04 1209 171.96V243H1178.76V174.36C1178.76 165.4 1176.52 158.68 1172.04 154.2C1167.72 149.72 1161.48 147.48 1153.32 147.48C1144.04 147.48 1136.84 150.6 1131.72 156.84C1126.6 162.92 1124.04 171.48 1124.04 182.52V243H1093.8Z" fill="white"></path>
<path d="M741.8 243V75H772.04V243H741.8Z" fill="white"></path>
<path d="M562.04 457V429.16H584.12V316.84H562.04V289H631.16C653.72 289 670.84 294.76 682.52 306.28C694.36 317.64 700.28 334.6 700.28 357.16V388.84C700.28 411.4 694.36 428.44 682.52 439.96C670.84 451.32 653.72 457 631.16 457H562.04ZM615.8 428.2H631.64C644.44 428.2 653.8 424.84 659.72 418.12C665.64 411.4 668.6 401.96 668.6 389.8V356.2C668.6 343.88 665.64 334.44 659.72 327.88C653.8 321.16 644.44 317.8 631.64 317.8H615.8V428.2Z" fill="white"></path>
<path d="M769.04 460.36C757.2 460.36 746.72 457.88 737.6 452.92C728.64 447.8 721.6 440.68 716.48 431.56C711.52 422.28 709.04 411.4 709.04 398.92V396.04C709.04 383.56 711.52 372.76 716.48 363.64C721.44 354.36 728.4 347.24 737.36 342.28C746.32 337.16 756.72 334.6 768.56 334.6C780.24 334.6 790.4 337.24 799.04 342.52C807.68 347.64 814.4 354.84 819.2 364.12C824 373.24 826.4 383.88 826.4 396.04V406.36H739.76C740.08 414.52 743.12 421.16 748.88 426.28C754.64 431.4 761.68 433.96 770 433.96C778.48 433.96 784.72 432.12 788.72 428.44C792.72 424.76 795.76 420.68 797.84 416.2L822.56 429.16C820.32 433.32 817.04 437.88 812.72 442.84C808.56 447.64 802.96 451.8 795.92 455.32C788.88 458.68 779.92 460.36 769.04 460.36ZM740 383.8H795.68C795.04 376.92 792.24 371.4 787.28 367.24C782.48 363.08 776.16 361 768.32 361C760.16 361 753.68 363.08 748.88 367.24C744.08 371.4 741.12 376.92 740 383.8Z" fill="white"></path>
<path d="M855.48 457V362.92H825.24V337.96H855.48V315.88C855.48 307.72 857.88 301.24 862.68 296.44C867.64 291.48 874.04 289 881.88 289H913.08V313.96H892.44C887.96 313.96 885.72 316.36 885.72 321.16V337.96H916.92V362.92H885.72V457H855.48Z" fill="white"></path>
<path d="M974.04 460.36C962.2 460.36 951.72 457.88 942.6 452.92C933.64 447.8 926.6 440.68 921.48 431.56C916.52 422.28 914.04 411.4 914.04 398.92V396.04C914.04 383.56 916.52 372.76 921.48 363.64C926.44 354.36 933.4 347.24 942.36 342.28C951.32 337.16 961.72 334.6 973.56 334.6C985.24 334.6 995.4 337.24 1004.04 342.52C1012.68 347.64 1019.4 354.84 1024.2 364.12C1029 373.24 1031.4 383.88 1031.4 396.04V406.36H944.76C945.08 414.52 948.12 421.16 953.88 426.28C959.64 431.4 966.68 433.96 975 433.96C983.48 433.96 989.72 432.12 993.72 428.44C997.72 424.76 1000.76 420.68 1002.84 416.2L1027.56 429.16C1025.32 433.32 1022.04 437.88 1017.72 442.84C1013.56 447.64 1007.96 451.8 1000.92 455.32C993.88 458.68 984.92 460.36 974.04 460.36ZM945 383.8H1000.68C1000.04 376.92 997.24 371.4 992.28 367.24C987.48 363.08 981.16 361 973.32 361C965.16 361 958.68 363.08 953.88 367.24C949.08 371.4 946.12 376.92 945 383.8Z" fill="white"></path>
<path d="M1041.8 457V337.96H1071.56V353.56H1075.88C1077.8 349.4 1081.4 345.48 1086.68 341.8C1091.96 337.96 1099.96 336.04 1110.68 336.04C1119.96 336.04 1128.04 338.2 1134.92 342.52C1141.96 346.68 1147.4 352.52 1151.24 360.04C1155.08 367.4 1157 376.04 1157 385.96V457H1126.76V388.36C1126.76 379.4 1124.52 372.68 1120.04 368.2C1115.72 363.72 1109.48 361.48 1101.32 361.48C1092.04 361.48 1084.84 364.6 1079.72 370.84C1074.6 376.92 1072.04 385.48 1072.04 396.52V457H1041.8Z" fill="white"></path>
<path d="M1218.24 460.36C1202.72 460.36 1190 457 1180.08 450.28C1170.16 443.56 1164.16 433.96 1162.08 421.48L1189.92 414.28C1191.04 419.88 1192.88 424.28 1195.44 427.48C1198.16 430.68 1201.44 433 1205.28 434.44C1209.28 435.72 1213.6 436.36 1218.24 436.36C1225.28 436.36 1230.48 435.16 1233.84 432.76C1237.2 430.2 1238.88 427.08 1238.88 423.4C1238.88 419.72 1237.28 416.92 1234.08 415C1230.88 412.92 1225.76 411.24 1218.72 409.96L1212 408.76C1203.68 407.16 1196.08 405 1189.2 402.28C1182.32 399.4 1176.8 395.48 1172.64 390.52C1168.48 385.56 1166.4 379.16 1166.4 371.32C1166.4 359.48 1170.72 350.44 1179.36 344.2C1188 337.8 1199.36 334.6 1213.44 334.6C1226.72 334.6 1237.76 337.56 1246.56 343.48C1255.36 349.4 1261.12 357.16 1263.84 366.76L1235.76 375.4C1234.48 369.32 1231.84 365 1227.84 362.44C1224 359.88 1219.2 358.6 1213.44 358.6C1207.68 358.6 1203.28 359.64 1200.24 361.72C1197.2 363.64 1195.68 366.36 1195.68 369.88C1195.68 373.72 1197.28 376.6 1200.48 378.52C1203.68 380.28 1208 381.64 1213.44 382.6L1220.16 383.8C1229.12 385.4 1237.2 387.56 1244.4 390.28C1251.76 392.84 1257.52 396.6 1261.68 401.56C1266 406.36 1268.16 412.92 1268.16 421.24C1268.16 433.72 1263.6 443.4 1254.48 450.28C1245.52 457 1233.44 460.36 1218.24 460.36Z" fill="white"></path>
<path d="M1330.04 460.36C1318.2 460.36 1307.72 457.88 1298.6 452.92C1289.64 447.8 1282.6 440.68 1277.48 431.56C1272.52 422.28 1270.04 411.4 1270.04 398.92V396.04C1270.04 383.56 1272.52 372.76 1277.48 363.64C1282.44 354.36 1289.4 347.24 1298.36 342.28C1307.32 337.16 1317.72 334.6 1329.56 334.6C1341.24 334.6 1351.4 337.24 1360.04 342.52C1368.68 347.64 1375.4 354.84 1380.2 364.12C1385 373.24 1387.4 383.88 1387.4 396.04V406.36H1300.76C1301.08 414.52 1304.12 421.16 1309.88 426.28C1315.64 431.4 1322.68 433.96 1331 433.96C1339.48 433.96 1345.72 432.12 1349.72 428.44C1353.72 424.76 1356.76 420.68 1358.84 416.2L1383.56 429.16C1381.32 433.32 1378.04 437.88 1373.72 442.84C1369.56 447.64 1363.96 451.8 1356.92 455.32C1349.88 458.68 1340.92 460.36 1330.04 460.36ZM1301 383.8H1356.68C1356.04 376.92 1353.24 371.4 1348.28 367.24C1343.48 363.08 1337.16 361 1329.32 361C1321.16 361 1314.68 363.08 1309.88 367.24C1305.08 371.4 1302.12 376.92 1301 383.8Z" fill="white"></path>
<path d="M1481.92 460.36C1470.4 460.36 1459.92 457.8 1450.48 452.68C1441.2 447.4 1433.76 439.8 1428.16 429.88C1422.72 419.8 1420 407.56 1420 393.16V352.84C1420 331.24 1426.08 314.68 1438.24 303.16C1450.4 291.48 1466.88 285.64 1487.68 285.64C1508.32 285.64 1524.24 291.16 1535.44 302.2C1546.8 313.08 1552.48 327.88 1552.48 346.6V347.56H1521.28V345.64C1521.28 339.72 1520 334.36 1517.44 329.56C1515.04 324.76 1511.36 321 1506.4 318.28C1501.44 315.4 1495.2 313.96 1487.68 313.96C1476.48 313.96 1467.68 317.4 1461.28 324.28C1454.88 331.16 1451.68 340.52 1451.68 352.36V393.64C1451.68 405.32 1454.88 414.76 1461.28 421.96C1467.68 429 1476.64 432.52 1488.16 432.52C1499.68 432.52 1508.08 429.48 1513.36 423.4C1518.64 417.32 1521.28 409.64 1521.28 400.36V397.96H1481.44V371.08H1552.48V457H1523.2V440.92H1518.88C1517.76 443.64 1515.92 446.52 1513.36 449.56C1510.96 452.6 1507.28 455.16 1502.32 457.24C1497.36 459.32 1490.56 460.36 1481.92 460.36Z" fill="white"></path>
<path d="M1566.8 457V337.96H1596.56V351.4H1600.88C1602.64 346.6 1605.52 343.08 1609.52 340.84C1613.68 338.6 1618.48 337.48 1623.92 337.48H1638.32V364.36H1623.44C1615.76 364.36 1609.44 366.44 1604.48 370.6C1599.52 374.6 1597.04 380.84 1597.04 389.32V457H1566.8Z" fill="white"></path>
<path d="M1701.44 460.36C1689.6 460.36 1678.96 457.96 1669.52 453.16C1660.08 448.36 1652.64 441.4 1647.2 432.28C1641.76 423.16 1639.04 412.2 1639.04 399.4V395.56C1639.04 382.76 1641.76 371.8 1647.2 362.68C1652.64 353.56 1660.08 346.6 1669.52 341.8C1678.96 337 1689.6 334.6 1701.44 334.6C1713.28 334.6 1723.92 337 1733.36 341.8C1742.8 346.6 1750.24 353.56 1755.68 362.68C1761.12 371.8 1763.84 382.76 1763.84 395.56V399.4C1763.84 412.2 1761.12 423.16 1755.68 432.28C1750.24 441.4 1742.8 448.36 1733.36 453.16C1723.92 457.96 1713.28 460.36 1701.44 460.36ZM1701.44 433.48C1710.72 433.48 1718.4 430.52 1724.48 424.6C1730.56 418.52 1733.6 409.88 1733.6 398.68V396.28C1733.6 385.08 1730.56 376.52 1724.48 370.6C1718.56 364.52 1710.88 361.48 1701.44 361.48C1692.16 361.48 1684.48 364.52 1678.4 370.6C1672.32 376.52 1669.28 385.08 1669.28 396.28V398.68C1669.28 409.88 1672.32 418.52 1678.4 424.6C1684.48 430.52 1692.16 433.48 1701.44 433.48Z" fill="white"></path>
<path d="M1821.16 458.92C1811.88 458.92 1803.72 456.84 1796.68 452.68C1789.8 448.36 1784.44 442.44 1780.6 434.92C1776.76 427.4 1774.84 418.76 1774.84 409V337.96H1805.08V406.6C1805.08 415.56 1807.24 422.28 1811.56 426.76C1816.04 431.24 1822.36 433.48 1830.52 433.48C1839.8 433.48 1847 430.44 1852.12 424.36C1857.24 418.12 1859.8 409.48 1859.8 398.44V337.96H1890.04V457H1860.28V441.4H1855.96C1854.04 445.4 1850.44 449.32 1845.16 453.16C1839.88 457 1831.88 458.92 1821.16 458.92Z" fill="white"></path>
<path d="M1906.8 505V337.96H1936.56V352.36H1940.88C1943.6 347.72 1947.84 343.64 1953.6 340.12C1959.36 336.44 1967.6 334.6 1978.32 334.6C1987.92 334.6 1996.8 337 2004.96 341.8C2013.12 346.44 2019.68 353.32 2024.64 362.44C2029.6 371.56 2032.08 382.6 2032.08 395.56V399.4C2032.08 412.36 2029.6 423.4 2024.64 432.52C2019.68 441.64 2013.12 448.6 2004.96 453.4C1996.8 458.04 1987.92 460.36 1978.32 460.36C1971.12 460.36 1965.04 459.48 1960.08 457.72C1955.28 456.12 1951.36 454.04 1948.32 451.48C1945.44 448.76 1943.12 446.04 1941.36 443.32H1937.04V505H1906.8ZM1969.2 433.96C1978.64 433.96 1986.4 431 1992.48 425.08C1998.72 419 2001.84 410.2 2001.84 398.68V396.28C2001.84 384.76 1998.72 376.04 1992.48 370.12C1986.24 364.04 1978.48 361 1969.2 361C1959.92 361 1952.16 364.04 1945.92 370.12C1939.68 376.04 1936.56 384.76 1936.56 396.28V398.68C1936.56 410.2 1939.68 419 1945.92 425.08C1952.16 431 1959.92 433.96 1969.2 433.96Z" fill="white"></path>
</svg>